<svg xmlns="http://www.w3.org/2000/svg" viewBox="0 0 1011.54 278.98" width="1012" height="279">
  
  <g transform="translate(12, 209.94921875)">
    <path d="M104.30-105.57L104.30-80.18L47.17-80.18Q41.99-80.18 39.36-77.59Q36.72-75 36.72-70.02L36.72 0L11.33 0L11.33-70.02Q11.33-76.56 12.99-81.74Q14.65-86.91 17.43-90.87Q20.21-94.82 23.83-97.61Q27.44-100.39 31.40-102.15Q35.35-103.91 39.40-104.74Q43.46-105.57 46.97-105.57 M229.57-70.61Q229.57-65.33 227.71-59.23Q225.86-53.12 221.71-47.90Q217.56-42.68 210.87-39.16Q204.18-35.64 194.61-35.64L148.81-35.64L148.81-59.77L194.61-59.77Q199.79-59.77 202.62-62.94Q205.45-66.11 205.45-70.80Q205.45-75.78 202.28-78.61Q199.10-81.45 194.61-81.45L148.81-81.45Q143.63-81.45 140.80-78.27Q137.97-75.10 137.97-70.41L137.97-34.96Q137.97-29.88 141.14-27.05Q144.32-24.22 149-24.22L194.61-24.22L194.61 0L148.81 0Q143.54 0 137.43-1.86Q131.33-3.71 126.10-7.86Q120.88-12.01 117.36-18.70Q113.85-25.39 113.85-34.96L113.85-70.61Q113.85-75.88 115.70-81.98Q117.56-88.09 121.71-93.31Q125.86-98.54 132.55-102.05Q139.24-105.57 148.81-105.57L194.61-105.57Q199.88-105.57 205.99-103.71Q212.09-101.86 217.31-97.71Q222.54-93.55 226.05-86.87Q229.57-80.18 229.57-70.61 M357.48-150.20L357.48-35.64Q357.48-29.10 355.82-23.88Q354.16-18.65 351.43-14.70Q348.69-10.74 345.08-7.96Q341.46-5.18 337.51-3.42Q333.55-1.66 329.50-0.83Q325.45 0 321.84 0L276.04 0Q269.49 0 264.32-1.66Q259.14-3.32 255.19-6.10Q251.23-8.89 248.45-12.50Q245.66-16.11 243.91-20.07Q242.15-24.02 241.32-28.08Q240.49-32.13 240.49-35.64L240.49-70.02Q240.49-79.79 244.05-86.57Q247.62-93.36 252.94-97.61Q258.26-101.86 264.51-103.71Q270.76-105.57 276.04-105.57L321.84-105.57L321.84-80.18L276.23-80.18Q271.15-80.18 268.52-77.59Q265.88-75 265.88-70.02L265.88-35.84Q265.88-30.66 268.47-28.03Q271.05-25.39 276.04-25.39L321.84-25.39Q327.01-25.39 329.55-28.03Q332.09-30.66 332.09-35.64L332.09-150.20" fill="#0B1220"/>
    <path d="M493.11-70.02L493.11-35.64Q493.11-29.10 491.45-23.88Q489.79-18.65 487.05-14.70Q484.32-10.74 480.70-7.96Q477.09-5.18 473.13-3.42Q469.18-1.66 465.18-0.83Q461.17 0 457.56 0L411.76 0L411.76-25.39L457.56-25.39Q462.64-25.39 465.18-28.03Q467.71-30.66 467.71-35.64L467.71-69.82Q467.71-75.10 465.13-77.64Q462.54-80.18 457.56-80.18L411.95-80.18Q406.78-80.18 404.14-77.59Q401.50-75 401.50-70.02L401.50 33.01L376.11 33.01L376.11-70.02Q376.11-76.56 377.77-81.74Q379.43-86.91 382.22-90.87Q385-94.82 388.61-97.61Q392.23-100.39 396.18-102.15Q400.14-103.91 404.19-104.74Q408.24-105.57 411.76-105.57L457.56-105.57Q464.10-105.57 469.28-103.91Q474.45-102.25 478.41-99.51Q482.36-96.78 485.15-93.16Q487.93-89.55 489.69-85.60Q491.45-81.64 492.28-77.64Q493.11-73.63 493.11-70.02 M602.17-105.57L602.17-80.18L545.04-80.18Q539.86-80.18 537.23-77.59Q534.59-75 534.59-70.02L534.59 0L509.20 0L509.20-70.02Q509.20-76.56 510.86-81.74Q512.52-86.91 515.30-90.87Q518.09-94.82 521.70-97.61Q525.31-100.39 529.27-102.15Q533.22-103.91 537.28-104.74Q541.33-105.57 544.84-105.57 M722.85-70.61L722.85-34.96Q722.85-29.69 721-23.58Q719.14-17.48 714.99-12.26Q710.84-7.03 704.15-3.52Q697.46 0 687.89 0L642.09 0Q636.82 0 630.71-1.86Q624.61-3.71 619.38-7.86Q614.16-12.01 610.64-18.70Q607.13-25.39 607.13-34.96Q607.13-40.23 608.98-46.39Q610.84-52.54 614.99-57.76Q619.14-62.99 625.83-66.50Q632.52-70.02 642.09-70.02L687.89-70.02L687.89-45.80L642.09-45.80Q636.91-45.80 634.08-42.63Q631.25-39.45 631.25-34.77Q631.25-29.79 634.52-27Q637.79-24.22 642.29-24.22L687.89-24.22Q693.07-24.22 695.90-27.34Q698.73-30.47 698.73-35.16L698.73-70.61Q698.73-75.59 695.65-78.52Q692.58-81.45 687.89-81.45L632.13-81.45L632.13-105.57L687.89-105.57Q693.16-105.57 699.27-103.71Q705.37-101.86 710.60-97.71Q715.82-93.55 719.34-86.87Q722.85-80.18 722.85-70.61 M856.52-58.59L856.52 0L831.13 0L831.13-58.59Q831.13-63.57 829.42-67.53Q827.71-71.48 824.79-74.32Q821.86-77.15 817.90-78.66Q813.95-80.18 809.36-80.18L764.92-80.18L764.92 0L739.53 0L739.53-92.97Q739.53-95.61 740.51-97.90Q741.48-100.20 743.24-101.90Q745-103.61 747.34-104.59Q749.69-105.57 752.32-105.57L809.55-105.57Q814.34-105.57 819.66-104.49Q824.98-103.42 830.21-101.03Q835.43-98.63 840.17-94.97Q844.90-91.31 848.56-86.08Q852.23-80.86 854.38-74.02Q856.52-67.19 856.52-58.59 M982.77-70.61L982.77-34.96Q982.77-29.69 980.92-23.58Q979.06-17.48 974.91-12.26Q970.76-7.03 964.07-3.52Q957.38 0 947.81 0L902.01 0Q896.74 0 890.63-1.86Q884.53-3.71 879.31-7.86Q874.08-12.01 870.57-18.70Q867.05-25.39 867.05-34.96Q867.05-40.23 868.91-46.39Q870.76-52.54 874.91-57.76Q879.06-62.99 885.75-66.50Q892.44-70.02 902.01-70.02L947.81-70.02L947.81-45.80L902.01-45.80Q896.84-45.80 894-42.63Q891.17-39.45 891.17-34.77Q891.17-29.79 894.44-27Q897.71-24.22 902.21-24.22L947.81-24.22Q952.99-24.22 955.82-27.34Q958.65-30.47 958.65-35.16L958.65-70.61Q958.65-75.59 955.58-78.52Q952.50-81.45 947.81-81.45L892.05-81.45L892.05-105.57L947.81-105.57Q953.09-105.57 959.19-103.71Q965.29-101.86 970.52-97.71Q975.74-93.55 979.26-86.87Q982.77-80.18 982.77-70.61" fill="#C52032"/>
  </g>
</svg>
