<svg xmlns="http://www.w3.org/2000/svg" viewBox="0 0 300 300" width="300" height="300">
  <rect width="100%" height="100%" fill="#0B1220"/>
  <g transform="translate(70.22, 196.42) scale(0.65887)">
    <path d="M104.30-105.57L104.30-80.18L47.17-80.18Q41.99-80.18 39.36-77.59Q36.72-75 36.72-70.02L36.72 0L11.33 0L11.33-70.02Q11.33-76.56 12.99-81.74Q14.65-86.91 17.43-90.87Q20.21-94.82 23.83-97.61Q27.44-100.39 31.40-102.15Q35.35-103.91 39.40-104.74Q43.46-105.57 46.97-105.57" fill="#FFFFFF"/>
    <path d="M232.40-70.02L232.40-35.64Q232.40-29.10 230.74-23.88Q229.08-18.65 226.35-14.70Q223.61-10.74 220-7.96Q216.39-5.18 212.43-3.42Q208.48-1.66 204.47-0.83Q200.47 0 196.86 0L151.05 0L151.05-25.39L196.86-25.39Q201.93-25.39 204.47-28.03Q207.01-30.66 207.01-35.64L207.01-69.82Q207.01-75.10 204.42-77.64Q201.84-80.18 196.86-80.18L151.25-80.18Q146.07-80.18 143.44-77.59Q140.80-75 140.80-70.02L140.80 33.01L115.41 33.01L115.41-70.02Q115.41-76.56 117.07-81.74Q118.73-86.91 121.51-90.87Q124.30-94.82 127.91-97.61Q131.52-100.39 135.48-102.15Q139.43-103.91 143.49-104.74Q147.54-105.57 151.05-105.57L196.86-105.57Q203.40-105.57 208.57-103.91Q213.75-102.25 217.71-99.51Q221.66-96.78 224.44-93.16Q227.23-89.55 228.98-85.60Q230.74-81.64 231.57-77.64Q232.40-73.63 232.40-70.02" fill="#C52032"/>
  </g>
</svg>
