<svg xmlns="http://www.w3.org/2000/svg" viewBox="0 0 32 32" width="32" height="32">
  <rect width="32" height="32" rx="6" fill="#0B1220" />
  <path
    d="M16 6c2.5 3 3.8 5.8 3.8 8.4 0 2-1.2 3.4-2.6 3.4-1 0-1.7-.6-1.7-1.5 0-.6.3-1.1.9-1.6-1.1.1-1.9 1-1.9 2.3 0 1.6 1.4 2.9 3.2 2.9 2.5 0 4.4-2 4.4-4.9 0-2.3-1.1-4.6-2.9-6.3.3 1.1.4 2.1.2 3-.5-1.8-1.6-3.6-3.4-5.7z"
    fill="#C2410C"
  />
  <path
    d="M13.4 14c.8 1 1.2 1.9 1.2 2.8 0 1-.7 1.7-1.5 1.7-.6 0-1-.4-1-.9 0-.3.1-.6.4-.9-.6 0-1 .5-1 1.2 0 .9.8 1.6 1.8 1.6 1.4 0 2.5-1.1 2.5-2.7 0-1.3-.6-2.6-1.6-3.5.1.6.2 1.1.1 1.6-.3-1-.9-2-1.9-3z"
    fill="#0E7490"
  />
</svg>
